<svg width="32" height="32" viewBox="0 0 32 32" fill="none" xmlns="http://www.w3.org/2000/svg">
<path d="M13.2493 20.6667C13.1303 20.2053 12.8898 19.7842 12.5528 19.4472C12.2159 19.1103 11.7948 18.8698 11.3333 18.7507L3.15333 16.6414C3.01378 16.6018 2.89095 16.5177 2.80348 16.402C2.71602 16.2862 2.6687 16.1451 2.6687 16C2.6687 15.855 2.71602 15.7139 2.80348 15.5981C2.89095 15.4824 3.01378 15.3983 3.15333 15.3587L11.3333 13.248C11.7946 13.1291 12.2156 12.8888 12.5525 12.5521C12.8895 12.2154 13.1301 11.7946 13.2493 11.3334L15.3587 3.15338C15.3979 3.01327 15.4818 2.88984 15.5978 2.80191C15.7137 2.71398 15.8552 2.66638 16.0007 2.66638C16.1462 2.66638 16.2877 2.71398 16.4036 2.80191C16.5195 2.88984 16.6035 3.01327 16.6427 3.15338L18.7507 11.3334C18.8697 11.7948 19.1102 12.2159 19.4472 12.5529C19.7841 12.8898 20.2052 13.1303 20.6667 13.2494L28.8467 15.3574C28.9873 15.3962 29.1114 15.4801 29.1998 15.5961C29.2882 15.7122 29.3361 15.8541 29.3361 16C29.3361 16.146 29.2882 16.2879 29.1998 16.4039C29.1114 16.52 28.9873 16.6039 28.8467 16.6427L20.6667 18.7507C20.2052 18.8698 19.7841 19.1103 19.4472 19.4472C19.1102 19.7842 18.8697 20.2053 18.7507 20.6667L16.6413 28.8467C16.6021 28.9868 16.5182 29.1103 16.4022 29.1982C16.2863 29.2861 16.1448 29.3337 15.9993 29.3337C15.8538 29.3337 15.7123 29.2861 15.5964 29.1982C15.4805 29.1103 15.3965 28.9868 15.3573 28.8467L13.2493 20.6667Z" stroke="#00A63E" stroke-width="2.66667" stroke-linecap="round" stroke-linejoin="round"/>
<path d="M26.6667 4V9.33333" stroke="#00A63E" stroke-width="2.66667" stroke-linecap="round" stroke-linejoin="round"/>
<path d="M29.3333 6.66663H24" stroke="#00A63E" stroke-width="2.66667" stroke-linecap="round" stroke-linejoin="round"/>
<path d="M5.33333 22.6666V25.3333" stroke="#00A63E" stroke-width="2.66667" stroke-linecap="round" stroke-linejoin="round"/>
<path d="M6.66667 24H4" stroke="#00A63E" stroke-width="2.66667" stroke-linecap="round" stroke-linejoin="round"/>
</svg>
