<svg width="32" height="32" viewBox="0 0 32 32" fill="none" xmlns="http://www.w3.org/2000/svg">
<path d="M14.6667 26.6667C12.3254 26.6738 10.067 25.8007 8.33937 24.2206C6.61172 22.6404 5.54103 20.4687 5.33966 18.1362C5.13829 15.8036 5.82093 13.4805 7.25221 11.6277C8.68349 9.77484 10.7589 8.52761 13.0667 8.13334C20.6667 6.66667 22.6667 5.97334 25.3333 2.66667C26.6667 5.33334 28 8.24001 28 13.3333C28 20.6667 21.6267 26.6667 14.6667 26.6667Z" stroke="#00A63E" stroke-width="2.66667" stroke-linecap="round" stroke-linejoin="round"/>
<path d="M2.66666 28C2.66666 24 5.13332 20.8533 9.43999 20C12.6667 19.36 16 17.3333 17.3333 16" stroke="#00A63E" stroke-width="2.66667" stroke-linecap="round" stroke-linejoin="round"/>
</svg>
